<svg xmlns="http://www.w3.org/2000/svg" viewBox="0 0 200 150" fill="none">
  <rect width="200" height="150" fill="#f8fafc"/>
  <rect x="70" y="25" width="60" height="100" rx="10" fill="#e2e8f0" stroke="#475569" stroke-width="2"/>
  <rect x="76" y="35" width="48" height="70" rx="4" fill="#ffffff" stroke="#94a3b8" stroke-width="1"/>
  
  <rect x="82" y="45" width="36" height="6" rx="3" fill="#3b82f6" opacity="0.2"/>
  <rect x="82" y="55" width="28" height="6" rx="3" fill="#cbd5e1"/>
  <rect x="82" y="65" width="32" height="6" rx="3" fill="#cbd5e1"/>
  <rect x="82" y="75" width="24" height="6" rx="3" fill="#cbd5e1"/>
  
  <circle cx="100" cy="115" r="5" fill="#475569"/>
  
  <path d="M130 55 L145 55 L145 70 L135 70 L130 75 Z" fill="#22c55e" opacity="0.2" stroke="#22c55e" stroke-width="1.5"/>
  <rect x="134" y="60" width="8" height="2" rx="1" fill="#22c55e"/>
  <rect x="134" y="64" width="6" height="2" rx="1" fill="#22c55e"/>
  
  <path d="M55 55 L70 55 L70 70 L60 70 L55 75 Z" fill="#f59e0b" opacity="0.2" stroke="#f59e0b" stroke-width="1.5"/>
  <rect x="59" y="60" width="8" height="2" rx="1" fill="#f59e0b"/>
  <rect x="59" y="64" width="6" height="2" rx="1" fill="#f59e0b"/>
  
  <circle cx="45" cy="45" r="8" fill="#3b82f6" opacity="0.15"/>
  <path d="M42 45 L44 47 L48 43" stroke="#3b82f6" stroke-width="1.5" stroke-linecap="round" stroke-linejoin="round" fill="none"/>
  
  <circle cx="155" cy="45" r="8" fill="#3b82f6" opacity="0.15"/>
  <path d="M152 45 L154 47 L158 43" stroke="#3b82f6" stroke-width="1.5" stroke-linecap="round" stroke-linejoin="round" fill="none"/>
</svg>